<svg width="24" height="24" viewBox="0 0 24 24" fill="currentColor" stroke="currentColor" stroke-linecap="round" xmlns="http://www.w3.org/2000/svg">
    <path d="M18 4H5C4.20435 4 3.44129 4.31607 2.87868 4.87868C2.31607 5.44129 2 6.20435 2 7V17C2 17.7957 2.31607 18.5587 2.87868 19.1213L4.29289 17.7071C4.10536 17.5196 4 17.2652 4 17V7C4 6.73478 4.10536 6.48043 4.29289 6.29289C4.48043 6.10536 4.73478 6 5 6H7V13C7 13.5523 7.44772 14 8 14L11 11V6H13V9L18 4Z"
        stroke="none"/>
    <path d="M4.67178 19.3282C4.67216 19.3286 4.67254 19.329 4.67292 19.3293C6.62349 21.2789 9.50434 21.5636 11.1061 19.9646C11.7038 19.3712 12.0259 18.597 12.1064 17.7599C12.1683 17.0972 12.6651 16.4896 13.3169 16.2783C13.7606 16.1387 14.1643 15.8945 14.494 15.5664C15.2981 14.762 15.5396 13.5849 15.2675 12.4109C15.1483 11.8962 14.9029 11.4265 14.5938 10.9976L17.2743 8.31713L18.5569 7.8896C18.7396 7.8288 18.9057 7.7261 19.0417 7.58971L20.6706 5.96118C20.8813 5.75038 20.9998 5.46456 21 5.16648C21.0002 4.86839 20.8821 4.58241 20.6716 4.37133L20.1501 3.84985L11.5057 12.4943C11.5837 12.5723 11.6543 12.6581 11.7162 12.7507C11.9016 13.0282 12.0006 13.3545 12.0006 13.6882C12.0006 14.1358 11.8228 14.565 11.5063 14.8815C11.1898 15.198 10.7606 15.3758 10.313 15.3758C9.97921 15.3758 9.65293 15.2768 9.37541 15.0914C9.28281 15.0295 9.19702 14.959 9.11907 14.8809L4.67178 19.3282Z"
    stroke="none"/>
    <path d="M3 21L21 3" />
</svg>