<svg width="121" height="60" viewBox="0 0 121 60" fill="none" xmlns="http://www.w3.org/2000/svg">
<path d="M97.1491 29.8133L85.2238 17.888C81.9307 14.5949 81.9307 9.25573 85.2238 5.96264C88.5169 2.66956 93.8561 2.66956 97.1491 5.96265L109.074 17.888L97.1491 29.8133Z" fill="url(#paint0_linear_208_70)"/>
<path fill-rule="evenodd" clip-rule="evenodd" d="M112.731 36.2675C111.883 38.3137 110.641 40.1729 109.075 41.7389L97.1494 29.8136L109.075 17.8883C110.641 19.4543 111.883 21.3135 112.731 23.3597C113.578 25.4058 114.014 27.5989 114.014 29.8136C114.014 32.0283 113.578 34.2214 112.731 36.2675ZM109.075 41.7389L97.1493 53.6643C93.8563 56.9573 88.5171 56.9573 85.224 53.6643C81.9309 50.3712 81.9309 45.032 85.224 41.7389L97.1493 29.8136L109.075 41.7389ZM97.1493 5.96294L109.075 17.8883L97.1493 29.8136C98.7154 28.2475 99.9577 26.3884 100.805 24.3422C101.653 22.2961 102.089 20.103 102.089 17.8883C102.089 15.6735 101.653 13.4805 100.805 11.4343C99.9577 9.38818 98.7154 7.529 97.1493 5.96294Z" fill="url(#paint1_linear_208_70)"/>
<path d="M23.8508 29.8136L35.7762 41.7389C39.0692 45.032 39.0692 50.3712 35.7762 53.6643C32.4831 56.9573 27.1439 56.9573 23.8508 53.6642L11.9255 41.7389L23.8508 29.8136Z" fill="url(#paint2_linear_208_70)"/>
<path fill-rule="evenodd" clip-rule="evenodd" d="M11.9254 17.888L23.8507 5.96264C27.1438 2.66956 32.483 2.66956 35.776 5.96264C39.0691 9.25573 39.0691 14.5949 35.776 17.888L23.8507 29.8133C22.2847 31.3794 21.0424 33.2385 20.1949 35.2847C19.3473 37.3308 18.9111 39.5239 18.9111 41.7386C18.9111 43.9534 19.3473 46.1464 20.1949 48.1926C21.0424 50.2387 22.2847 52.0979 23.8507 53.664L11.9254 41.7386C10.3593 40.1726 9.11708 38.3134 8.26954 36.2672C7.42199 34.2211 6.98577 32.028 6.98577 29.8133C6.98577 27.5986 7.422 25.4055 8.26954 23.3594C9.11708 21.3132 10.3593 19.454 11.9254 17.888Z" fill="url(#paint3_linear_208_70)"/>
<rect x="39.6305" y="37.9462" width="42.1625" height="16.865" rx="8.4325" transform="rotate(-45 39.6305 37.9462)" fill="url(#paint4_linear_208_70)"/>
<defs>
<linearGradient id="paint0_linear_208_70" x1="103.112" y1="23.8506" x2="85.2238" y2="5.96264" gradientUnits="userSpaceOnUse">
<stop stop-color="#071533"/>
<stop offset="1" stop-color="#002146"/>
</linearGradient>
<linearGradient id="paint1_linear_208_70" x1="109.075" y1="17.8883" x2="50.6406" y2="76.3224" gradientUnits="userSpaceOnUse">
<stop stop-color="#003366"/>
<stop offset="1" stop-color="#4C1194"/>
</linearGradient>
<linearGradient id="paint2_linear_208_70" x1="17.8882" y1="35.7763" x2="35.7762" y2="53.6643" gradientUnits="userSpaceOnUse">
<stop stop-color="#071533"/>
<stop offset="1" stop-color="#002146"/>
</linearGradient>
<linearGradient id="paint3_linear_208_70" x1="11.9254" y1="41.7386" x2="70.3595" y2="-16.6955" gradientUnits="userSpaceOnUse">
<stop stop-color="#003366"/>
<stop offset="1" stop-color="#4C1194"/>
</linearGradient>
<linearGradient id="paint4_linear_208_70" x1="39.6305" y1="46.3787" x2="122.269" y2="46.3787" gradientUnits="userSpaceOnUse">
<stop stop-color="#003366"/>
<stop offset="1" stop-color="#4C1194"/>
</linearGradient>
</defs>
</svg>
