<svg width="300" height="300" viewBox="0 0 300 300" fill="none" xmlns="http://www.w3.org/2000/svg">
<path d="M163.968 98.3503C162.724 98.9893 164.775 101.28 165.249 99.4978C165.324 98.9503 164.528 98.0623 163.968 98.3503Z" fill="#44617A"/>
<path d="M171.191 96.3481C171.266 95.8006 170.471 94.9171 169.91 95.2021C168.668 95.8501 170.717 98.1301 171.191 96.3481Z" fill="#44617A"/>
<path d="M99.9979 188.127C99.8042 188.172 99.6364 188.292 99.5315 188.462C99.4265 188.631 99.3931 188.834 99.4384 189.028C99.4838 189.222 99.6042 189.39 99.7733 189.495C99.9424 189.6 100.146 189.633 100.34 189.588C111.522 186.99 123.121 186.743 134.403 188.862C145.685 190.982 156.404 195.421 165.881 201.9C166.041 201.9 166.197 201.849 166.326 201.754C166.455 201.659 166.55 201.526 166.598 201.373C166.646 201.22 166.643 201.056 166.591 200.904C166.538 200.753 166.439 200.622 166.307 200.532C156.722 193.971 145.876 189.48 134.459 187.344C123.042 185.208 111.306 185.475 99.9979 188.127Z" fill="#44617A"/>
<path d="M170.83 195.81C153.637 185.058 134.422 177.831 114.035 180.829C113.844 180.861 113.672 180.966 113.556 181.122C113.441 181.279 113.39 181.473 113.415 181.666C113.44 181.859 113.539 182.034 113.691 182.155C113.843 182.277 114.036 182.334 114.229 182.316C126.798 180.668 139.579 182.322 151.313 187.116C157.786 189.985 164.043 193.316 170.036 197.083C170.205 197.189 170.409 197.222 170.603 197.177C170.797 197.132 170.965 197.012 171.07 196.843C171.175 196.675 171.209 196.471 171.164 196.277C171.119 196.083 170.999 195.915 170.83 195.81Z" fill="#44617A"/>
<path d="M127.458 175.36C127.259 175.368 127.072 175.453 126.936 175.599C126.8 175.745 126.728 175.939 126.735 176.137C126.743 176.336 126.828 176.524 126.974 176.66C127.12 176.795 127.313 176.868 127.512 176.86C144.807 176.247 161.732 181.959 175.116 192.928C175.847 193.552 176.838 192.379 176.069 191.769C162.374 180.616 145.11 174.789 127.458 175.36Z" fill="#44617A"/>
<path d="M123.333 169.899C123.134 169.914 122.949 170.007 122.819 170.158C122.688 170.309 122.623 170.505 122.638 170.704C122.652 170.903 122.745 171.088 122.896 171.219C123.047 171.349 123.244 171.414 123.443 171.399C144.336 169.852 165.022 176.423 181.193 189.744C181.917 190.37 182.918 189.197 182.144 188.586C165.665 175.041 144.608 168.351 123.333 169.899Z" fill="#44617A"/>
<path d="M130.625 166.533C140.733 165.143 151.026 166.069 160.724 169.241C170.422 172.413 179.272 177.748 186.605 184.843C187.28 185.526 188.367 184.438 187.647 183.766C180.141 176.527 171.092 171.082 161.18 167.84C151.268 164.599 140.75 163.644 130.416 165.048C130.223 165.08 130.05 165.186 129.934 165.343C129.818 165.501 129.769 165.698 129.796 165.892C129.823 166.086 129.925 166.261 130.08 166.381C130.235 166.501 130.43 166.555 130.625 166.533Z" fill="#44617A"/>
<path d="M53.7546 169.973C49.6821 170.957 49.3717 176.663 53.9721 176.723C60.1806 176.757 60.3171 168.386 53.7546 169.973ZM56.9047 173.864C56.4634 174.396 55.8828 174.794 55.2278 175.014C54.5729 175.234 53.8695 175.268 53.1967 175.11C51.1507 174.36 52.1016 171.935 54.2136 171.401C55.8546 170.612 58.0417 172.211 56.9032 173.864H56.9047Z" fill="#44617A"/>
<path d="M229.619 189.17C228.782 189.17 228.401 189.17 226.221 202.988C225.171 209.612 224.19 216.609 224.018 217.896C224.109 219.441 227.109 218.715 228.18 218.946C253.109 218.64 253.712 191.025 229.619 189.17ZM242.721 211.875C238.395 216.657 231.183 217.824 225.609 217.329C226.491 210.879 229.091 193.419 230.033 190.686C241.73 191.27 251.121 202.589 242.721 211.875Z" fill="#44617A"/>
<path d="M292.175 83.0191C289.394 80.9296 286.1 82.7041 283.606 80.4856C283.357 80.2435 283.059 80.0565 282.733 79.9367C282.407 79.8169 282.059 79.767 281.712 79.7902C281.365 79.8134 281.027 79.9092 280.72 80.0713C280.413 80.2335 280.143 80.4584 279.928 80.7316C279.07 81.7896 278.573 83.094 278.509 84.4546C269.672 93.5581 259.204 100.592 242.809 104.562C246.239 101.044 249.041 96.9636 251.093 92.4991C256.043 80.4256 235.984 71.1991 227.243 69.0061C226.856 67.3696 228.041 64.7566 228.523 63.0796C229.07 60.8701 227.473 59.7796 226.303 60.3796C223.421 61.3306 222.038 64.5076 220.366 66.6961C217.097 71.0461 219.563 72.3586 223.402 74.3221C223.288 74.4706 223.237 74.6582 223.26 74.8442C223.283 75.0301 223.379 75.1994 223.526 75.3151C225.509 77.2861 235.226 85.0111 231.434 87.9511C229.382 89.5366 223.234 94.2871 219.664 97.3246C212.699 96.9886 209.66 96.9721 205.162 97.7476C205.108 97.7573 205.058 97.7847 205.022 97.8256C204.985 97.8665 204.963 97.9185 204.959 97.9734C204.955 98.0283 204.969 98.0829 205 98.1287C205.03 98.1744 205.075 98.2087 205.127 98.2261C218.395 104.625 220.78 121.766 216.491 134.001C219.436 133.797 224.599 134.127 227.044 132.989C236.284 132.072 249.346 129.539 256.225 125.628C263.265 121.794 269.367 116.444 274.09 109.966C278.812 103.488 282.038 96.0417 283.534 88.1656C286.218 87.1653 288.971 86.3632 291.772 85.7656C293.071 85.5616 294.022 83.6716 292.175 83.0191ZM233.14 72.5836C241.222 75.7471 253.355 83.5156 249.727 91.8766C247.396 96.9559 244.062 101.511 239.924 105.269C238.456 105.626 236.521 106.007 235.021 106.34C239.396 101.982 243.375 97.2441 246.913 92.1826C247.905 90.9087 248.533 89.3899 248.731 87.7876C247.963 82.5451 243.031 81.0496 238.955 78.2626C236.847 77.0887 234.817 75.7805 232.877 74.3461C233.052 73.775 233.141 73.1809 233.14 72.5836ZM224.909 73.4476L221.689 71.6836C220.876 71.2456 220.039 70.5541 220.451 69.5506C221.419 67.7773 222.523 66.0812 223.751 64.4776C224.47 63.2024 225.628 62.2325 227.009 61.7491C227.117 61.8031 227.192 62.2351 227.099 62.6296C226.346 64.6273 225.825 66.7049 225.547 68.8216C225.459 69.2568 225.482 69.707 225.613 70.1312C225.744 70.5554 225.979 70.94 226.297 71.2501C226.111 72.1245 225.619 72.9039 224.909 73.4476ZM226.919 76.3411C226.397 75.8626 225.902 75.3676 225.4 74.9371C226.122 74.4953 226.726 73.8833 227.157 73.1546C227.589 72.4258 227.835 71.6025 227.875 70.7566C229.057 71.1151 230.302 71.5306 231.548 71.9836C232.171 74.7436 229.528 77.6671 226.919 76.3411ZM217.876 98.7001C218.692 98.6266 219.659 99.0961 220.394 98.6791C223.892 95.6791 230.261 90.7591 232.312 89.1736C236.465 85.8316 231.346 80.9341 228.634 78.1096C229.394 78.0778 230.132 77.8445 230.773 77.4336C231.413 77.0227 231.933 76.4489 232.279 75.7711C236.374 79.4041 245.98 82.1836 247.235 87.7081C247.052 89.0236 246.521 90.2663 245.696 91.3081C242.039 96.5488 237.903 101.438 233.341 105.914C232.6 105.014 230.803 102.843 229.838 104.189C229.8 104.279 229.779 104.377 229.778 104.475C229.777 104.574 229.795 104.672 229.832 104.763C229.869 104.855 229.923 104.938 229.992 105.009C230.061 105.079 230.144 105.135 230.234 105.174C231.141 105.603 231.893 106.299 232.391 107.169C232.897 109.049 236.168 107.453 237.511 107.343C253.363 104.181 267.647 97.6396 276.157 88.7431C277.14 88.9704 278.03 89.494 278.707 90.2431C270.17 111.581 252.332 124.01 229.699 124.49C230.467 114.614 227.359 103.512 217.876 98.7001ZM272.123 110.25C262.189 124.319 246.5 129.437 228.799 131.288C229.271 129.561 229.536 127.785 229.588 125.996C252.671 125.558 270.902 113.024 279.796 91.4776C282.47 94.8556 274.651 106.674 272.123 110.25ZM281.551 90.3376C281.485 90.6046 281.401 90.8671 281.33 91.1326C280.438 89.5104 279.022 88.2387 277.313 87.5251C278.011 86.8321 278.978 85.3351 279.983 85.7161C280.429 85.8695 280.833 86.1228 281.166 86.4567C281.498 86.7906 281.749 87.1962 281.901 87.6423C282.052 88.0885 282.099 88.5634 282.039 89.0305C281.978 89.4977 281.811 89.9448 281.551 90.3376ZM283.192 86.6371C282.51 85.6292 281.571 84.8219 280.472 84.2986C279.446 84.3211 280.753 82.0096 281.081 81.6781C282.079 79.9291 284.936 84.7516 290.081 84.6466C287.75 85.1834 285.45 85.8479 283.192 86.6371Z" fill="#44617A"/>
<path d="M168.613 94.304C169.319 94.1075 170.125 93.6065 170.762 93.947C170.947 94.0208 171.153 94.0181 171.336 93.9397C171.519 93.8612 171.663 93.7133 171.737 93.5285C171.811 93.3437 171.808 93.1372 171.73 92.9543C171.651 92.7715 171.503 92.6273 171.319 92.5535C170.431 92.1215 167.443 92.33 167.969 93.941C168.036 94.0519 168.13 94.1436 168.243 94.2072C168.356 94.2708 168.483 94.3042 168.613 94.304Z" fill="#44617A"/>
<path d="M163.118 98.2888C163.277 97.7349 163.605 97.2442 164.055 96.8848C164.214 96.7654 164.319 96.5878 164.348 96.3909C164.376 96.1939 164.324 95.9939 164.205 95.8348C164.086 95.6757 163.908 95.5705 163.711 95.5423C163.514 95.5142 163.314 95.5654 163.155 95.6848C162.431 96.2522 161.908 97.0373 161.664 97.9243C161.626 98.1135 161.661 98.3103 161.764 98.4737C161.867 98.6372 162.029 98.7546 162.217 98.8016C162.404 98.8485 162.602 98.8214 162.77 98.7259C162.938 98.6304 163.062 98.4738 163.118 98.2888Z" fill="#44617A"/>
<path d="M170.661 102.129C169.964 102.807 171.044 103.887 171.722 103.189C172.022 102.889 172.277 102.601 172.535 102.306C172.155 102.964 171.734 103.848 172.862 104.016C174.335 103.594 174.362 101.401 173.448 100.371C172.287 99.3762 171.491 101.557 170.661 102.129Z" fill="#44617A"/>
<path d="M167.629 101.738C168.514 102.155 170.409 100.718 169.327 99.8073C168.844 99.4278 168.277 99.9573 168.06 100.296C167.641 99.8268 168.615 96.5778 167.221 96.6333C167.022 96.6333 166.831 96.7123 166.691 96.853C166.55 96.9937 166.471 97.1844 166.471 97.3833C166.569 98.5923 165.991 101.358 167.629 101.738Z" fill="#44617A"/>
<path d="M261.056 192.275C256.141 182.324 243.806 176.429 229.357 174.044C235.345 168.651 237.731 166.419 237.878 166.125C238.492 163.694 238.069 155.285 239.257 153.047C239.318 152.887 239.326 152.713 239.282 152.548C239.238 152.383 239.142 152.236 239.009 152.129C230.748 146.494 221.712 142.089 212.185 139.05C220.547 125.868 217 102.207 199.667 97.7478C202.934 93.0843 199.526 85.9593 193.804 86.4288C190.024 86.4855 186.256 86.8553 182.537 87.5343C183.484 86.7363 182.987 84.9843 182.309 84.3423C185.351 82.6308 181.493 77.2413 178.559 77.5113C178.709 75.2013 177.098 70.9803 174.391 72.8193C173.598 71.6515 172.594 70.6418 171.431 69.8418C169.916 68.9418 167.971 68.7333 167.134 70.3653C165.883 69.5631 164.475 69.0379 163.004 68.8248C161.096 68.7978 159.404 70.0248 159.635 71.7363C157.607 71.2863 155.375 71.5008 154.271 73.5363C153.739 74.7588 154.945 75.4533 153.047 75.3633C150.388 75.6048 148.697 79.2288 151.397 80.9298C148.45 81.6033 146.147 86.9418 150.161 87.7833C148.742 89.7333 147.77 92.6403 149.389 94.6038C128.546 98.0928 111.934 100.998 96.2256 104.106C88.6431 107.523 82.9686 112.023 75.7011 115.806C75.5307 115.895 75.4008 116.045 75.338 116.227C75.2752 116.408 75.2844 116.607 75.3636 116.781C76.4706 119.217 96.6816 120.981 100.721 121.316C119.295 118.625 137.711 114.936 155.888 110.265C149.531 115.35 140.449 120.102 139.66 129.173C119.776 126.912 101.228 129.792 85.5231 139.8C58.9506 155.573 31.4046 171.386 6.79556 190.914C7.49006 195.488 9.04556 200.102 9.27806 204.404C9.2928 204.57 9.36276 204.727 9.47682 204.849C9.59088 204.972 9.7425 205.052 9.90761 205.078C10.0727 205.105 10.2419 205.075 10.3881 204.994C10.5344 204.913 10.6495 204.786 10.7151 204.632C28.4901 199.434 48.5826 199.302 66.9861 203.379C81.9606 206.007 77.0196 213.038 81.5601 214.029C81.8316 214.097 86.8896 214.724 86.9601 214.641C87.9096 214.56 88.3371 213.479 88.3101 212.736C88.8501 205.836 92.9211 205.673 99.5031 205.986C130.192 207.978 141.241 213.021 166.681 229.236C166.776 229.299 166.885 229.337 166.998 229.35C167.111 229.362 167.225 229.347 167.332 229.307C167.438 229.267 167.534 229.202 167.611 229.118C167.688 229.034 167.744 228.934 167.774 228.824C182.899 215.324 205.147 195.707 215.048 186.824C211.24 202.442 207.76 218.241 203.831 237.717C203.811 237.818 203.812 237.922 203.833 238.023C203.855 238.123 203.897 238.218 203.957 238.302C204.017 238.385 204.093 238.456 204.182 238.508C204.27 238.561 204.368 238.595 204.47 238.608C220.054 240.6 240.205 241.091 252.527 231.173C264.272 222.353 268.351 205.092 261.056 192.275ZM193.838 87.9288C199.151 87.8898 200.951 93.7593 198.064 97.3473C196.014 96.8652 193.916 96.6136 191.81 96.5973C192.155 95.0748 192.078 93.4868 191.586 92.0051C191.094 90.5233 190.207 89.2041 189.02 88.1898C190.604 88.0398 192.214 87.9423 193.838 87.9288ZM189.532 117.804C189.112 115.887 190.805 115.601 191.224 117.531C192.021 123.409 191.374 129.392 189.34 134.963C181.804 133.967 174.139 134.843 167.023 137.513C164.664 136.21 162.21 135.089 159.682 134.159C163.499 131.408 168.358 127.545 172.1 125.024C175.949 129.654 181.286 132.804 187.201 133.934C187.37 133.928 187.533 133.867 187.665 133.761C187.797 133.655 187.891 133.509 187.933 133.344C189.651 128.356 190.198 123.038 189.532 117.804ZM181.865 96.0423C182.452 94.991 182.746 93.8009 182.714 92.5971C182.683 91.3933 182.328 90.2201 181.687 89.2008C183.278 88.9503 185.029 88.5813 186.787 88.4508C188.22 89.218 189.346 90.4556 189.974 91.9555C190.603 93.4553 190.695 95.1258 190.237 96.6858C187.643 96.9003 182.533 97.4103 180.787 97.5858C180.127 97.1073 181.727 96.7653 181.865 96.0423ZM162.301 93.3258C164.516 94.2618 166.597 92.3028 167.453 90.2508C168.233 90.5668 169.096 90.6115 169.904 90.3778C170.712 90.1441 171.418 89.6456 171.908 88.9623C172.181 89.2065 172.519 89.3675 172.88 89.4262C173.242 89.4849 173.613 89.439 173.95 89.2938C174.385 90.0198 175.388 91.3428 176.159 92.3388C176.109 92.9521 176.221 93.5679 176.485 94.1238C176.655 94.4631 176.93 94.7387 177.269 94.91C177.608 95.0813 177.993 95.1394 178.368 95.0755C178.742 95.0117 179.086 94.8295 179.349 94.5556C179.613 94.2817 179.781 93.9305 179.83 93.5538C179.818 93.3513 180.4 93.3618 180.595 92.9433C180.923 92.5255 181.083 92.0003 181.045 91.4703C181.388 92.9073 181.264 95.5803 179.537 95.9913C178.952 96.0243 178.399 96.7413 178.747 97.2858C180.045 99.4919 181.658 101.497 183.536 103.236C184.052 107.559 177.386 113.1 174.652 107.79C175.655 106.883 176.015 108.057 176.806 108.731C177.256 109.181 178.019 108.431 177.565 107.972C176.982 107.49 176.471 106.928 176.047 106.302C175.897 106.002 175.597 106.002 175.288 106.152C173.635 107.387 171.568 107.932 169.522 107.67C168.363 107.384 167.274 106.865 166.322 106.146C165.37 105.426 164.574 104.52 163.982 103.484C163.862 102.759 163.66 101.55 162.686 101.084C161.545 100.263 161.234 98.3719 160.654 97.0744C161.454 95.9511 162.015 94.6751 162.301 93.3258ZM170.132 108.75C166.469 110.976 160.982 107.759 160.724 103.628C160.748 103.298 160.898 102.99 161.142 102.767C161.386 102.544 161.706 102.422 162.037 102.428C162.397 102.671 162.464 103.61 162.562 104.037C162.818 105.062 164.051 106.698 164.987 106.314C166.343 107.734 168.175 108.601 170.132 108.75ZM83.3196 117.75C81.3532 117.485 79.4086 117.077 77.5011 116.531C79.5246 115.889 81.5376 112.931 83.5776 114.498C83.9556 115.059 83.0406 115.322 83.0376 115.841C82.9101 116.705 84.0051 116.534 84.3186 117.089C84.2173 117.272 84.0739 117.429 83.9002 117.546C83.7265 117.663 83.5275 117.737 83.3196 117.762V117.75ZM100.57 119.784C95.4606 119.361 89.9301 118.734 85.4706 118.086C85.6112 117.894 85.7098 117.674 85.76 117.441C85.8103 117.208 85.811 116.966 85.7623 116.733C85.7135 116.5 85.6163 116.279 85.4769 116.086C85.3375 115.892 85.159 115.73 84.9531 115.61C85.0809 115.354 85.1513 115.073 85.1594 114.786C85.1675 114.5 85.1131 114.216 85 113.953C84.8869 113.69 84.7178 113.455 84.5046 113.264C84.2913 113.073 84.0389 112.93 83.7651 112.847C87.9031 110.136 92.2121 107.696 96.6651 105.542C98.3077 105.612 99.8856 106.202 101.171 107.227C102.457 108.252 103.383 109.659 103.817 111.245C104.252 112.831 104.171 114.514 103.587 116.05C103.003 117.587 101.946 118.899 100.568 119.796L100.57 119.784ZM103.27 119.421C104.232 118.336 104.925 117.039 105.294 115.637C105.662 114.234 105.696 112.764 105.392 111.346C105.088 109.928 104.455 108.601 103.543 107.472C102.632 106.344 101.468 105.446 100.145 104.85C115.61 101.888 132.238 98.9508 153.029 95.5113C153.082 96.9633 154.3 98.7993 155.897 98.0178C156.347 97.7178 156.356 97.3083 156.776 97.9533C156.954 98.1743 157.176 98.3554 157.428 98.4849C157.68 98.6144 157.956 98.6894 158.239 98.7049C158.522 98.7205 158.805 98.6763 159.07 98.5752C159.335 98.4742 159.575 98.3185 159.776 98.1183C160.16 99.1319 160.614 100.118 161.134 101.069C158.674 101.868 158.936 104.876 160.162 106.707C159.582 107.094 159.038 107.531 158.534 108.012C140.332 112.809 121.885 116.622 103.273 119.433L103.27 119.421ZM81.4836 212.151C81.3896 212.181 81.2907 212.192 81.1926 212.183C81.0945 212.174 80.9991 212.146 80.9117 212.101C80.8244 212.055 80.7469 211.993 80.6836 211.918C80.6204 211.842 80.5726 211.755 80.5431 211.661C79.478 208.262 77.3811 205.28 74.5436 203.128C71.7061 200.975 68.2688 199.76 64.7091 199.65C64.5102 199.65 64.3194 199.571 64.1787 199.431C64.0381 199.29 63.9591 199.099 63.9591 198.9C63.9591 198.701 64.0381 198.511 64.1787 198.37C64.3194 198.229 64.5102 198.15 64.7091 198.15C68.5899 198.253 72.3411 199.569 75.4362 201.912C78.5313 204.256 80.815 207.509 81.9666 211.217C82.0247 211.405 82.0067 211.608 81.9164 211.783C81.826 211.958 81.6706 212.09 81.4836 212.151ZM81.8841 205.551C71.6166 189.501 29.1051 187.229 11.4291 189.156C33.7926 172.089 58.3791 157.578 82.1811 143.52C98.9481 132.188 118.181 127.998 139.639 130.682C139.987 135.14 143.456 135.567 147.523 135.717C153.748 135.717 161.074 128.765 163.805 122.391C165.738 118.737 167.301 114.898 168.472 110.933C169.234 110.826 169.97 110.58 170.644 110.208C166.807 118.187 165.374 128.24 157.861 133.616C157.168 134.118 157.756 134.931 158.324 135.23C160.933 136.245 163.162 137.18 165.361 138.294C162.44 139.547 159.412 141.894 156.572 142.853C140.803 133.07 118.966 133.152 100.664 136.403C83.9346 144.342 69.7926 155.285 53.6256 164.25C43.3311 170.219 32.6871 176.39 22.5141 183.071C22.3766 183.161 22.2727 183.295 22.2184 183.45C22.1642 183.605 22.1625 183.774 22.2136 183.931C22.2648 184.087 22.366 184.222 22.5016 184.315C22.6372 184.409 22.7997 184.455 22.9641 184.446C37.2853 183.498 51.6575 185.238 65.3391 189.575C71.3781 191.453 78.7806 194.42 82.4976 200.739C82.0119 202.294 81.8043 203.922 81.8841 205.548V205.551ZM91.7646 162.342C76.8666 165.99 79.0011 160.742 82.0761 148.65C90.8136 143.838 97.7751 136.907 108.572 136.65C124.871 135.45 141.787 135.501 155.258 143.825C148.882 147.441 142.508 151.268 136.193 155.3C135.055 155.793 133.988 157.229 132.772 157.008C118.955 157.365 105.213 159.151 91.7646 162.339V162.342ZM131.065 158.579C126.281 161.696 121.354 165.068 116.054 168.851C114.358 168.627 110.813 169.932 109.712 168.663C108.251 166.599 108.662 163.199 108.469 160.734C115.956 159.615 123.498 158.894 131.062 158.576L131.065 158.579ZM65.7996 188.147C52.8351 184.058 39.2588 182.251 25.6761 182.808C43.7226 171.324 62.3976 161.208 80.2761 149.765C76.2861 163.233 78.0261 167.483 92.1441 163.794C97.0811 162.672 102.037 161.722 107.011 160.944C106.96 162.807 107.065 164.671 107.326 166.517C107.741 170.342 110.398 171.228 113.719 170.517C105.617 176.473 97.8856 182.917 90.5676 189.813C87.4972 192.335 84.9802 195.463 83.1741 199.002C78.9711 192.834 71.3076 189.878 65.7966 188.144L65.7996 188.147ZM120.197 205.688C120.14 205.878 120.01 206.039 119.835 206.133C119.66 206.228 119.455 206.249 119.264 206.192C119.453 205.959 83.2251 196.986 86.4336 212.192C86.4548 212.288 86.4569 212.388 86.4398 212.485C86.4226 212.582 86.3865 212.674 86.3335 212.757C86.2805 212.841 86.2117 212.912 86.1309 212.969C86.0501 213.025 85.959 213.065 85.8628 213.087C85.7666 213.108 85.6671 213.11 85.5701 213.093C85.473 213.076 85.3803 213.04 85.2972 212.987C85.2141 212.934 85.1423 212.865 85.0858 212.784C85.0294 212.703 84.9893 212.612 84.9681 212.516C83.3916 206.148 89.6181 201.6 97.5471 201.848C105.026 201.805 112.476 202.782 119.692 204.75C119.786 204.779 119.874 204.825 119.95 204.888C120.026 204.95 120.09 205.027 120.136 205.113C120.183 205.2 120.212 205.295 120.222 205.393C120.232 205.492 120.222 205.591 120.194 205.685L120.197 205.688ZM142.238 204.398C142.175 204.586 142.039 204.742 141.861 204.831C141.683 204.919 141.477 204.934 141.289 204.87C141.139 204.818 125.825 199.701 114.559 198.131C102.586 196.463 90.3186 199.031 86.6316 203.972C86.0811 204.762 84.8226 203.847 85.4316 203.072C90.0456 196.883 103.982 195.138 114.769 196.641C126.169 198.231 141.619 203.391 141.769 203.444C141.956 203.508 142.111 203.645 142.198 203.823C142.286 204.001 142.299 204.207 142.235 204.395L142.238 204.398ZM165.188 208.683C160.226 204.544 154.521 201.388 148.378 199.383C137.297 195.413 125.598 193.446 113.828 193.574C105.494 194.007 87.4146 194.774 83.3541 204.264C83.6166 198.893 87.3681 194.691 91.5906 190.914C111.449 171.879 141.716 152.514 165.475 139.899C171.241 136.824 179.102 135.629 188.824 136.34C188.263 137.166 187.76 139.913 186.778 139.557C181.438 138.839 176.035 138.736 170.672 139.248C170.574 139.257 170.478 139.285 170.39 139.33C170.302 139.376 170.224 139.438 170.161 139.514C170.097 139.589 170.049 139.677 170.019 139.771C169.989 139.865 169.978 139.964 169.987 140.063C170.004 140.262 170.099 140.446 170.252 140.574C170.327 140.638 170.415 140.686 170.509 140.716C170.603 140.746 170.703 140.757 170.801 140.748C176.001 140.252 181.241 140.347 186.421 141.03C185.497 142.535 184.456 143.965 183.31 145.307C183.199 145.162 183.039 145.063 182.86 145.029C177.374 144.109 171.788 143.953 166.261 144.566C166.162 144.577 166.067 144.607 165.98 144.654C165.893 144.702 165.816 144.766 165.754 144.843C165.692 144.921 165.646 145.009 165.618 145.104C165.59 145.199 165.582 145.299 165.592 145.398C165.603 145.496 165.633 145.591 165.681 145.678C165.728 145.765 165.793 145.842 165.87 145.904C165.947 145.966 166.036 146.012 166.131 146.04C166.226 146.068 166.326 146.077 166.424 146.066C171.747 145.477 177.125 145.619 182.41 146.487C181.219 147.731 179.735 150.11 178.06 150.362C177.622 150.125 160.927 146.529 165.374 149.861C169.223 150.121 173.044 150.704 176.795 151.605C175.07 153.087 172.259 152.675 170.557 154.058C169.693 154.41 169.135 155.423 169.615 156.051C167.965 155.787 155.953 153.501 155.876 155.487C155.876 155.686 155.955 155.877 156.096 156.018C156.236 156.158 156.427 156.237 156.626 156.237C158.555 156.452 171.059 156.227 168.448 158.561C167.798 159.486 167.578 161.57 169.072 161.7C169.441 161.559 169.103 162.716 169.478 163.106C159.617 159.319 149.015 157.859 138.497 158.838C138.298 158.857 138.115 158.954 137.987 159.108C137.86 159.262 137.799 159.46 137.818 159.659C137.836 159.858 137.933 160.041 138.087 160.169C138.241 160.296 138.439 160.357 138.638 160.338C159.512 158.186 179.821 166.676 194.261 181.286C194.408 181.286 194.551 181.244 194.674 181.163C194.796 181.083 194.893 180.968 194.951 180.834C195.009 180.699 195.027 180.551 195.002 180.406C194.976 180.262 194.909 180.128 194.809 180.021C188.138 172.965 180.034 167.418 171.043 163.752C171.428 163.566 171.749 163.269 171.964 162.899C171.974 163.152 172.058 163.396 172.205 163.603C172.351 163.809 172.555 163.969 172.79 164.062C173.025 164.156 173.283 164.179 173.531 164.13C173.779 164.08 174.008 163.96 174.19 163.784C175.388 162.418 176.744 161.197 178.228 160.148C185.808 163.126 192.648 167.722 198.271 173.615C198.337 173.69 198.419 173.751 198.509 173.794C198.6 173.837 198.699 173.861 198.799 173.866C198.9 173.87 199 173.854 199.094 173.819C199.188 173.783 199.274 173.73 199.347 173.66C199.42 173.591 199.478 173.508 199.518 173.416C199.559 173.324 199.58 173.224 199.581 173.124C199.582 173.023 199.563 172.924 199.524 172.831C199.486 172.738 199.43 172.654 199.358 172.583C194.073 167.051 187.736 162.631 180.719 159.582C184.342 159.294 187.888 158.38 191.2 156.882C197.009 159.811 202.364 163.564 207.1 168.024C207.17 168.095 207.255 168.151 207.348 168.189C207.441 168.227 207.541 168.246 207.641 168.244C207.741 168.243 207.84 168.221 207.932 168.181C208.024 168.14 208.107 168.082 208.176 168.009C208.245 167.936 208.298 167.85 208.333 167.756C208.368 167.662 208.384 167.562 208.379 167.461C208.375 167.361 208.351 167.263 208.308 167.172C208.264 167.082 208.204 167.001 208.129 166.934C203.581 162.655 198.475 159.011 192.95 156.102C195.432 154.963 197.813 153.617 200.069 152.078C205.696 154.839 210.879 158.424 215.447 162.714C216.14 163.392 217.198 162.279 216.475 161.622C211.994 157.42 206.937 153.878 201.457 151.104C203.244 149.777 204.92 148.304 206.467 146.702C211.686 149.029 216.606 151.976 221.12 155.48C221.199 155.54 221.289 155.583 221.384 155.608C221.48 155.633 221.58 155.639 221.678 155.626C221.776 155.613 221.87 155.58 221.955 155.53C222.041 155.48 222.116 155.414 222.175 155.335C222.235 155.256 222.279 155.167 222.304 155.071C222.329 154.975 222.335 154.875 222.321 154.777C222.308 154.68 222.275 154.585 222.226 154.5C222.176 154.414 222.109 154.34 222.031 154.28C217.563 150.815 212.708 147.88 207.565 145.533C208.997 143.933 210.29 142.214 211.43 140.394C220.456 143.237 229.039 147.33 236.93 152.553C232.678 154.91 213.68 170.253 206.23 175.685C203.189 177.914 165.344 208.515 165.188 208.68V208.683ZM174.905 157.974C173.479 157.052 171.259 160.845 170.791 161.84C171.214 160.17 172.156 158.678 173.482 157.578C173.627 157.455 173.72 157.283 173.744 157.094C173.768 156.905 173.72 156.715 173.61 156.56C173.5 156.405 173.335 156.297 173.149 156.257C172.963 156.217 172.769 156.249 172.606 156.345C173.015 156.099 173.445 155.889 173.891 155.718C174.042 155.66 174.17 155.554 174.256 155.417C174.342 155.28 174.381 155.118 174.368 154.957C174.355 154.796 174.29 154.643 174.182 154.522C174.075 154.4 173.931 154.317 173.773 154.284C176.416 153.068 178.573 155.634 178.984 157.97C176.853 159.025 174.984 160.541 173.512 162.408C173.716 161.157 174.219 159.974 174.979 158.958C175.088 158.812 175.14 158.632 175.126 158.45C175.111 158.269 175.031 158.098 174.901 157.971L174.905 157.974ZM167.725 226.889L167.185 219.212C171.343 215.459 175.814 212.067 180.548 209.072C180.716 208.965 180.835 208.796 180.878 208.602C180.921 208.407 180.885 208.204 180.778 208.036C180.671 207.868 180.502 207.75 180.308 207.706C180.114 207.663 179.91 207.699 179.743 207.806C175.27 210.642 171.027 213.826 167.053 217.326L166.856 214.529L203.536 184.587C203.612 184.525 203.675 184.448 203.722 184.361C203.769 184.275 203.798 184.179 203.808 184.081C203.817 183.983 203.808 183.884 203.779 183.79C203.751 183.696 203.704 183.608 203.642 183.531C203.58 183.455 203.503 183.392 203.416 183.345C203.329 183.298 203.234 183.269 203.136 183.259C203.038 183.25 202.939 183.259 202.845 183.287C202.75 183.316 202.662 183.363 202.586 183.425L166.727 212.7L166.523 209.798C185.803 194.885 186.662 191.927 220.355 166.85C224.323 163.764 233.156 156.567 237.427 153.95C236.984 156.503 236.755 159.089 236.741 161.681L217.612 177.195C217.491 177.293 217.404 177.426 217.363 177.575C217.321 177.724 217.326 177.882 217.378 178.028C217.43 178.174 217.525 178.3 217.652 178.39C217.778 178.479 217.929 178.527 218.084 178.527C218.486 178.527 217.048 179.577 236.684 163.665C236.654 164.526 236.626 165.233 236.6 165.359C235.174 167.114 181.186 214.937 167.725 226.886V226.889ZM258.11 208.428L263.143 208.692C262.672 215.027 260.161 221.039 255.986 225.827C254.885 224.918 251.936 221.327 250.838 222.603C250.731 222.771 250.696 222.975 250.739 223.169C250.783 223.363 250.901 223.532 251.069 223.638C252.497 224.574 253.807 225.68 254.969 226.931C250.808 231.199 245.597 234.296 239.86 235.913L238.537 231.152C238.479 230.965 238.351 230.809 238.179 230.715C238.008 230.622 237.807 230.598 237.619 230.651C237.431 230.703 237.271 230.827 237.172 230.995C237.074 231.164 237.045 231.364 237.092 231.554L238.427 236.354C232.777 237.833 226.936 238.456 221.101 238.2L221.861 233.124C221.881 232.932 221.826 232.74 221.708 232.587C221.59 232.434 221.417 232.333 221.226 232.304C221.035 232.276 220.841 232.322 220.683 232.433C220.525 232.545 220.416 232.713 220.379 232.902L219.587 238.182C214.869 238.113 210.158 237.794 205.474 237.227C209.495 217.328 213.055 201.263 216.992 185.237C221.342 180.981 225.46 177.669 228.313 174.978C228.688 175.788 229.913 175.527 230.639 175.791C230.459 176.96 229.013 181.304 230.681 181.559C230.88 181.559 231.071 181.48 231.211 181.339C231.352 181.199 231.431 181.008 231.431 180.809C231.442 179.208 231.674 177.617 232.118 176.079C236.525 176.933 240.823 178.271 244.936 180.069L242.332 184.365C242.281 184.45 242.247 184.543 242.232 184.641C242.217 184.738 242.221 184.837 242.245 184.933C242.268 185.029 242.311 185.119 242.369 185.198C242.427 185.278 242.501 185.345 242.585 185.396C242.669 185.447 242.763 185.481 242.86 185.496C242.958 185.511 243.057 185.506 243.153 185.483C243.249 185.459 243.339 185.417 243.418 185.358C243.497 185.3 243.565 185.227 243.616 185.142L246.302 180.711C251.977 183.573 256.15 186.918 259.034 191.745L255.233 193.644C255.142 193.686 255.06 193.746 254.993 193.821C254.925 193.895 254.873 193.982 254.84 194.077C254.807 194.172 254.793 194.272 254.799 194.373C254.805 194.473 254.832 194.571 254.877 194.661C254.922 194.75 254.984 194.83 255.061 194.896C255.137 194.961 255.226 195.01 255.321 195.04C255.417 195.071 255.518 195.081 255.618 195.072C255.718 195.062 255.815 195.033 255.904 194.985L259.775 193.052C262.11 197.39 263.286 202.258 263.189 207.183L258.19 206.921C257.99 206.91 257.795 206.979 257.646 207.113C257.497 207.247 257.408 207.434 257.398 207.633C257.387 207.833 257.456 208.028 257.59 208.177C257.723 208.325 257.911 208.415 258.11 208.425V208.428Z" fill="#44617A"/>
</svg>
